<?xml version="1.0" encoding="UTF-8"?>
<svg version="1.1" xmlns="http://www.w3.org/2000/svg" width="529" height="352">
<path d="M0 0 C8.08969037 0.35025196 14.63408928 2.66534615 20.484375 8.375 C26.10873702 14.92699117 26.10873702 14.92699117 25.89453125 18.62890625 C24.66404749 22.06518808 22.91297524 23.78137993 20.046875 25.99609375 C17.484375 26.18359375 17.484375 26.18359375 15.046875 24.99609375 C13.6742068 23.02288322 12.34259883 21.02066223 11.046875 18.99609375 C2.3122508 12.6634912 -10.58951938 14.23142424 -20.7890625 15.45703125 C-31.45913377 17.53244557 -41.51489536 21.63111551 -51.140625 26.62109375 C-58.60210624 30.46375659 -66.45012871 33.76909341 -74.953125 32.99609375 C-74.66966222 34.91399088 -74.3760222 36.83038558 -74.078125 38.74609375 C-73.91570312 39.8134375 -73.75328125 40.88078125 -73.5859375 41.98046875 C-72.80463226 45.72920846 -72.80463226 45.72920846 -70.953125 48.99609375 C-61.29397315 52.80230228 -50.78916989 50.83215546 -40.953125 48.99609375 C-41.18257813 48.25101562 -41.41203125 47.5059375 -41.6484375 46.73828125 C-41.953125 43.99609375 -41.953125 43.99609375 -40.6953125 41.94140625 C-35.67299915 37.04517608 -35.67299915 37.04517608 -32.203125 36.80859375 C-29.62133255 38.17120643 -28.46787577 39.52465829 -26.953125 41.99609375 C-26.25316406 41.70992188 -25.55320312 41.42375 -24.83203125 41.12890625 C-14.64851017 37.12182197 -4.41967039 33.64551464 6.421875 37.05859375 C10.89286567 40.35861068 14.14643293 43.83503279 16.296875 48.99609375 C15.91838154 53.5380153 13.2103097 55.89684468 10.046875 58.99609375 C7.58537869 58.61620108 6.36902011 58.379783 4.73828125 56.4375 C3.98751733 55.18795867 3.2375133 53.93796045 2.48828125 52.6875 C0.50302147 50.35791332 -0.99079954 49.78577443 -3.953125 48.99609375 C-6.62066713 49.0126795 -9.12468269 49.118372 -11.765625 49.37109375 C-12.45849609 49.4278125 -13.15136719 49.48453125 -13.86523438 49.54296875 C-15.56210946 49.68339979 -17.25777748 49.83828782 -18.953125 49.99609375 C-18.50839844 50.599375 -18.06367188 51.20265625 -17.60546875 51.82421875 C-17.03957031 52.6234375 -16.47367187 53.42265625 -15.890625 54.24609375 C-15.32214844 55.035 -14.75367188 55.82390625 -14.16796875 56.63671875 C-12.953125 58.99609375 -12.953125 58.99609375 -13.109375 61.12109375 C-14.41790756 64.02894389 -16.6378001 65.85887077 -18.953125 67.99609375 C-21.265625 67.37109375 -21.265625 67.37109375 -23.953125 65.99609375 C-25.00321153 64.02193107 -26.00300376 62.02026509 -26.953125 59.99609375 C-29.00258899 58.14294118 -29.00258899 58.14294118 -30.953125 56.99609375 C-31.984375 57.57359375 -33.015625 58.15109375 -34.078125 58.74609375 C-45.62637673 64.41891916 -59.29510936 67.70383199 -71.9765625 64.1484375 C-77.98077698 61.48891307 -81.65148756 57.60664656 -84.953125 51.99609375 C-85.32953125 51.36574219 -85.7059375 50.73539062 -86.09375 50.0859375 C-88.22345045 44.90689323 -87.3811664 38.57449641 -85.953125 33.30859375 C-85.623125 32.54546875 -85.293125 31.78234375 -84.953125 30.99609375 C-85.654375 30.97546875 -86.355625 30.95484375 -87.078125 30.93359375 C-92.35803128 29.21188518 -94.85241614 24.96667228 -97.48046875 20.26171875 C-101.01117855 13.02425268 -101.01117855 13.02425268 -100.8046875 9.3671875 C-99.80018377 6.57024363 -98.71433538 5.50031277 -96.390625 3.68359375 C-95.74996094 3.17183594 -95.10929688 2.66007813 -94.44921875 2.1328125 C-93.95550781 1.75769531 -93.46179688 1.38257813 -92.953125 0.99609375 C-89.17494026 4.09960264 -87.73980455 7.48713979 -85.88671875 11.87109375 C-84.8396959 14.25427546 -83.80120667 16.14801208 -81.953125 17.99609375 C-70.98090461 21.51007283 -58.12936752 18.1580951 -48.10546875 13.16015625 C-46.80176685 12.48608777 -45.50100464 11.80630569 -44.203125 11.12109375 C-30.05317664 3.6619226 -16.01900845 -0.02118916 0 0 Z " fill="#CCCCCC" transform="translate(301.953125,250.00390625)"/>
<path d="M0 0 C7.60435809 3.29522184 12.5856551 8.83197956 15.875 16.34375 C20.11131263 28.15769225 20.39941542 41.75361825 15.125 53.34375 C12.25800474 58.66662422 8.05936706 62.97188294 3.8125 67.21875 C4.55693359 67.69441406 4.55693359 67.69441406 5.31640625 68.1796875 C17.81972583 76.7683055 22.36338467 89.9170147 25.125 104.28125 C26.04915689 110.8125511 26.65263976 117.66023965 25.8125 124.21875 C22.58458445 126.3706937 21.52849191 126.41961443 17.8125 126.21875 C16.14689807 123.25351896 15.46868293 120.80947145 15.1015625 117.4375 C14.99344238 116.51855957 14.88532227 115.59961914 14.77392578 114.65283203 C14.66290527 113.68458496 14.55188477 112.71633789 14.4375 111.71875 C12.12024877 93.10695367 12.12024877 93.10695367 1.4375 78.34375 C-1.70249103 76.99803956 -4.89951259 76.13507436 -8.1875 75.21875 C-8.18226318 76.4783252 -8.17702637 77.73790039 -8.17163086 79.03564453 C-8.15333348 83.77326732 -8.14197891 88.51088708 -8.13256836 93.24853516 C-8.12758406 95.28695198 -8.12079421 97.32536532 -8.11206055 99.36376953 C-7.99475763 127.47506966 -7.99475763 127.47506966 -9.1875 133.21875 C-12.1875 135.21875 -12.1875 135.21875 -15.3125 134.90625 C-18.1875 134.21875 -18.1875 134.21875 -19.1875 133.21875 C-19.30755617 130.35779024 -19.36299338 127.51991674 -19.37695312 124.65771484 C-19.38524643 123.75817078 -19.39353973 122.85862671 -19.40208435 121.93182373 C-19.41954214 119.96697159 -19.43469303 118.00209795 -19.44786072 116.03721237 C-19.46891258 112.9055016 -19.49595019 109.7738929 -19.52453613 106.64224243 C-19.584373 99.959452 -19.63619874 93.27661054 -19.6875 86.59375 C-19.74716601 78.91961181 -19.81024024 71.24551969 -19.87937927 63.57146072 C-19.90542454 60.5262017 -19.9265779 57.48093701 -19.9473877 54.43563843 C-20.05546308 41.01192869 -20.52234403 27.62586094 -21.1875 14.21875 C-21.25762385 12.7685124 -21.32758695 11.31826701 -21.39733887 9.86801147 C-21.49971977 7.76086032 -21.60390147 5.65379482 -21.7109375 3.546875 C-21.1875 1.21875 -21.1875 1.21875 -18.890625 -0.5859375 C-12.81916019 -3.27071818 -6.16506293 -1.84951888 0 0 Z M-12.1875 10.21875 C-11.92261721 15.23185913 -11.65601363 20.24487301 -11.38793945 25.2578125 C-11.29731813 26.95668168 -11.2071353 28.65557431 -11.11743164 30.35449219 C-10.57341463 40.65130568 -9.97071207 50.93685163 -9.1875 61.21875 C-3.72179894 60.22442662 -0.8609449 58.39540652 2.8125 54.21875 C9.06871953 44.17671557 9.707492 35.10152501 7.25 23.58203125 C5.51537534 17.77695214 2.90889526 13.4161918 -2.125 9.84375 C-5.59704185 8.79161611 -8.90959486 8.57979743 -12.1875 10.21875 Z " fill="#FEFEFE" transform="translate(226.1875,81.78125)"/>
<path d="M0 0 C3.5 0.1875 3.5 0.1875 5.5 1.1875 C5.5 24.9475 5.5 48.7075 5.5 73.1875 C13.42 73.5175 21.34 73.8475 29.5 74.1875 C29.39171875 70.66449219 29.39171875 70.66449219 29.28125 67.0703125 C28.78420883 50.35970972 28.39505563 33.65614971 28.375 16.9375 C28.37250244 16.20017639 28.37000488 15.46285278 28.36743164 14.70318604 C28.36161534 12.63019941 28.36297666 10.55736271 28.3671875 8.484375 C28.36831543 7.31229492 28.36944336 6.14021484 28.37060547 4.93261719 C28.5 2.1875 28.5 2.1875 29.5 0.1875 C35.01904905 -0.1804366 35.01904905 -0.1804366 37.16847229 1.46391296 C39.47294658 4.44692411 39.06335693 8.13715501 39.15234375 11.76953125 C39.18464584 12.65042923 39.21694794 13.53132721 39.25022888 14.43891907 C39.35083646 17.35486016 39.42760105 20.27072947 39.5 23.1875 C39.52717102 24.17184021 39.55434204 25.15618042 39.58233643 26.17034912 C39.78817642 33.73783401 39.93424538 41.30584404 40.0625 48.875 C40.08268188 50.04929565 40.10286377 51.22359131 40.12365723 52.43347168 C40.26809655 61.01791459 40.39090469 69.60253869 40.5 78.1875 C40.52317291 79.99749481 40.52317291 79.99749481 40.54681396 81.84405518 C40.63220379 88.79366276 40.69630386 95.74297444 40.73117065 102.69302368 C40.74368172 104.84879992 40.76116534 107.00455327 40.78372192 109.1602478 C40.81323023 112.14343622 40.82344611 115.12605846 40.828125 118.109375 C40.84657722 119.43196068 40.84657722 119.43196068 40.86540222 120.78126526 C40.84348579 126.75265194 40.84348579 126.75265194 39.13787842 128.91192627 C37.5 130.1875 37.5 130.1875 34.9375 130.5625 C33.7309375 130.376875 33.7309375 130.376875 32.5 130.1875 C30.33428495 126.93892742 30.21540904 125.83750273 30.0859375 122.05859375 C30.04718506 121.03113037 30.00843262 120.00366699 29.96850586 118.94506836 C29.93764893 117.8494458 29.90679199 116.75382324 29.875 115.625 C29.81807983 113.95352905 29.81807983 113.95352905 29.76000977 112.24829102 C29.46405387 102.88977639 29.42132509 93.54981438 29.5 84.1875 C21.58 83.8575 13.66 83.5275 5.5 83.1875 C5.5 98.0375 5.5 112.8875 5.5 128.1875 C-0.5 129.1875 -0.5 129.1875 -3.5 127.1875 C-3.89489008 124.6496208 -4.08177991 122.34267335 -4.15234375 119.7890625 C-4.18464584 119.00109283 -4.21694794 118.21312317 -4.25022888 117.40127563 C-4.35371885 114.66362141 -4.42973992 111.92620443 -4.5 109.1875 C-4.52717102 108.1811853 -4.55434204 107.17487061 -4.58233643 106.13806152 C-4.7937117 97.94699489 -4.93485057 89.75524241 -5.0625 81.5625 C-5.08301422 80.28722443 -5.10352844 79.01194885 -5.12466431 77.69802856 C-5.39904429 60.39429191 -5.62006044 43.08970111 -5.67623901 25.78375244 C-5.6837255 23.68376304 -5.69438885 21.58378247 -5.70828247 19.48382568 C-5.72586435 16.59199677 -5.73030742 13.70046906 -5.73046875 10.80859375 C-5.73760895 9.95628677 -5.74474915 9.1039798 -5.75210571 8.22584534 C-5.72103543 0.30648404 -5.72103543 0.30648404 0 0 Z " fill="#FEFEFE" transform="translate(114.5,85.8125)"/>
<path d="M0 0 C2.6875 -0.375 2.6875 -0.375 6 0 C11.24981682 4.87650146 12.46985366 10.08551623 14.00244141 16.93139648 C14.37803916 18.52063635 14.37803916 18.52063635 14.76122475 20.14198208 C15.52892062 23.42352245 16.2691382 26.71007563 17 30 C17.21841301 30.97643085 17.43682602 31.95286171 17.6618576 32.95888138 C19.15074046 39.66031172 20.56380887 46.37659025 21.9609375 53.09765625 C22.40055719 55.19897274 22.8403914 57.30024436 23.28042603 59.401474 C24.18935194 63.74753609 25.09470313 68.09432335 25.99755859 72.44165039 C27.15283424 78.00217287 28.31895851 83.56036016 29.48784447 89.11803532 C30.39349067 93.43130466 31.29267771 97.74590135 32.189991 102.06091118 C32.61760901 104.11261827 33.04740554 106.16387262 33.47947311 108.21464729 C34.07944317 111.06631283 34.67047296 113.91969278 35.25927734 116.77368164 C35.5256601 118.02587997 35.5256601 118.02587997 35.79742432 119.30337524 C36.74008429 123.92594208 37.36391053 128.25512637 37 133 C36.34 133.66 35.68 134.32 35 135 C31.875 134.625 31.875 134.625 29 134 C26.33826869 123.71788058 23.9793311 113.43647307 22 103 C20.48019531 103.2165625 20.48019531 103.2165625 18.9296875 103.4375 C17.57815455 103.62521291 16.22659036 103.81270096 14.875 104 C14.20984375 104.09539062 13.5446875 104.19078125 12.859375 104.2890625 C8.86725887 104.83700001 5.02400605 105.03989101 1 105 C0.91959473 105.9286084 0.83918945 106.8572168 0.75634766 107.81396484 C0.45411385 111.25494635 0.14386624 114.69500767 -0.171875 118.13476562 C-0.30694076 119.62438516 -0.43879414 121.11429956 -0.56738281 122.60449219 C-0.7526461 124.74499577 -0.94939193 126.88417711 -1.1484375 129.0234375 C-1.26364746 130.31169434 -1.37885742 131.59995117 -1.49755859 132.92724609 C-2 136 -2 136 -4 138 C-7.125 137.625 -7.125 137.625 -10 137 C-10.19987824 123.14055319 -9.57600829 109.4009446 -8.72265625 95.5703125 C-8.59010238 93.36036702 -8.45798513 91.15039531 -8.32627869 88.94039917 C-8.05124021 84.343202 -7.77278413 79.7462305 -7.49145508 75.14941406 C-7.13264734 69.28630173 -6.7797359 63.42285437 -6.42903996 57.55925179 C-6.09136438 51.91698739 -5.75092182 46.27489099 -5.41015625 40.6328125 C-5.34638353 39.57369785 -5.28261082 38.51458321 -5.21690559 37.42337418 C-4.82584016 30.94793924 -4.42302235 24.47342785 -4 18 C-3.9158786 16.70124939 -3.8317572 15.40249878 -3.74508667 14.06439209 C-3.66735016 12.99368469 -3.58961365 11.92297729 -3.50952148 10.81982422 C-3.44756088 9.95380585 -3.38560028 9.08778748 -3.32176208 8.19552612 C-2.85087402 4.98244695 -1.73875027 2.72152217 0 0 Z M5 25 C3.91943761 30.55601299 3.59018686 36.10412721 3.24609375 41.7421875 C3.18092056 42.78335724 3.11574738 43.82452698 3.04859924 44.89724731 C2.91172837 47.10099504 2.77650671 49.30484574 2.64282227 51.50878906 C2.44029526 54.82917241 2.22926543 58.14893972 2.01757812 61.46875 C1.30062182 72.99652463 0.77689837 84.44829352 1 96 C3.04166667 95.85416667 5.08333333 95.70833333 7.125 95.5625 C8.26195312 95.48128906 9.39890625 95.40007812 10.5703125 95.31640625 C13.7540478 95.02269035 16.85510907 94.56875687 20 94 C19.44720643 85.85516198 17.85077105 78.06997223 16.05859375 70.1171875 C15.76805442 68.80879742 15.47802953 67.50029301 15.18849182 66.19168091 C14.4324423 62.78103301 13.6695076 59.37196286 12.9050293 55.9631958 C12.12320072 52.47119827 11.34803077 48.97772358 10.57226562 45.484375 C9.05461682 38.65480647 7.52967444 31.82688483 6 25 C5.67 25 5.34 25 5 25 Z " fill="#FEFEFE" transform="translate(279,86)"/>
<path d="M0 0 C2.875 -0.5 2.875 -0.5 6 0 C14.32548909 8.73695169 15.40147472 23.57508363 17.875 35.0625 C18.05553925 35.89319 18.23607849 36.72388 18.42208862 37.57974243 C22.42104642 55.98419989 26.25482341 74.42469106 30.08017731 92.86588669 C30.56194759 95.18484102 31.045708 97.50337234 31.52996826 99.82180786 C32.30032013 103.51204102 33.06439437 107.20352224 33.82380104 110.8960228 C34.10758977 112.27136598 34.39337401 113.64629912 34.68128014 115.02078629 C35.07901339 116.92179183 35.46851771 118.82451342 35.85766602 120.72729492 C36.07922867 121.79831955 36.30079132 122.86934418 36.52906799 123.9728241 C37.01044791 127.06715974 37.22454842 129.87528597 37 133 C36.34 133.66 35.68 134.32 35 135 C31.875 134.625 31.875 134.625 29 134 C26.33727974 123.7140603 24.00672179 113.43495332 22 103 C15.07 103.99 8.14 104.98 1 106 C0.80664062 108.14242187 0.61328125 110.28484375 0.4140625 112.4921875 C0.22089734 114.56417474 0.02466198 116.63584973 -0.171875 118.70751953 C-0.30692818 120.1486279 -0.43878213 121.59003978 -0.56738281 123.03173828 C-0.75267798 125.10276816 -0.94941281 127.17243763 -1.1484375 129.2421875 C-1.32125244 131.11173096 -1.32125244 131.11173096 -1.49755859 133.01904297 C-2 136 -2 136 -4 138 C-7.125 137.625 -7.125 137.625 -10 137 C-11.00872553 133.97382342 -11.05007909 132.33518023 -10.8679657 129.20228577 C-10.8133316 128.21421936 -10.75869751 127.22615295 -10.70240784 126.20814514 C-10.63649948 125.12504562 -10.57059113 124.04194611 -10.50268555 122.92602539 C-10.43776917 121.78418793 -10.37285278 120.64235046 -10.30596924 119.46591187 C-10.0888359 115.67612278 -9.86306005 111.88690577 -9.63671875 108.09765625 C-9.48281257 105.46270114 -9.32923741 102.82772667 -9.17597961 100.19273376 C-8.8531129 94.65842348 -8.52521587 89.12442734 -8.19458008 83.59057617 C-7.81400378 77.21949843 -7.4422642 70.84795095 -7.07516068 64.47608382 C-6.75889159 58.9910961 -6.43752501 53.50642341 -6.11207801 48.0219726 C-5.91813115 44.75325726 -5.72644447 41.48444059 -5.53839684 38.21537971 C-5.32701245 34.55602604 -5.10728784 30.89726126 -4.88549805 27.23852539 C-4.82566238 26.17364395 -4.76582672 25.10876251 -4.70417786 24.01161194 C-3.53986789 5.30980184 -3.53986789 5.30980184 0 0 Z M5 26 C4.18734206 28.9167838 3.80140977 31.66273613 3.61108398 34.68237305 C3.55109726 35.60821701 3.49111053 36.53406097 3.42930603 37.48796082 C3.36884598 38.48580093 3.30838593 39.48364105 3.24609375 40.51171875 C3.18092056 41.55334671 3.11574738 42.59497467 3.04859924 43.66816711 C2.91143544 45.8796536 2.7762284 48.09126218 2.64282227 50.30297852 C2.4409782 53.63016558 2.22971065 56.95665827 2.01757812 60.28320312 C1.27737803 72.20514931 0.78660414 84.05498609 1 96 C3.04166667 95.85416667 5.08333333 95.70833333 7.125 95.5625 C8.26195312 95.48128906 9.39890625 95.40007812 10.5703125 95.31640625 C13.7540478 95.02269035 16.85510907 94.56875687 20 94 C19.32586053 86.24193006 17.76234754 78.80674508 16.05859375 71.21484375 C15.76814749 69.90500367 15.47812067 68.59507051 15.18849182 67.28504944 C14.43150415 63.86638305 13.66889039 60.44899655 12.9050293 57.03186035 C12.12398663 53.5330747 11.34836634 50.03308767 10.57226562 46.53320312 C9.05343069 39.68762816 7.52863855 32.84339227 6 26 C5.67 26 5.34 26 5 26 Z " fill="#FEFEFE" transform="translate(384,86)"/>
<path d="M0 0 C4.45529122 0.10074779 7.0122869 0.68471567 10.18115234 3.84692383 C15.21010498 9.99771974 14.25060067 17.47131656 13.58935547 25.00415039 C13.22857231 28.59486449 12.85111658 32.18243244 12.42993164 35.76660156 C12.33623291 36.59877197 12.24253418 37.43094238 12.14599609 38.28833008 C12.05697021 39.0341333 11.96794434 39.77993652 11.8762207 40.54833984 C11.68282895 42.7469196 11.68282895 42.7469196 12.80615234 45.53442383 C16.1122763 47.1874858 19.2467385 47.15036233 22.80615234 46.53442383 C31.35032339 42.80218063 37.18567748 36.61342227 43.11865234 29.65942383 C53.49245042 17.63899114 53.49245042 17.63899114 59.80615234 15.53442383 C59.80615234 14.87442383 59.80615234 14.21442383 59.80615234 13.53442383 C69.00050335 5.26199962 83.73354669 0.1468082 95.85302734 0.24926758 C99.79307049 0.62972148 101.91550193 1.86613114 104.80615234 4.53442383 C105.42490234 5.09129883 106.04365234 5.64817383 106.68115234 6.22192383 C108.45524804 9.86867608 108.03598233 13.55070398 107.80615234 17.53442383 C107.14615234 17.53442383 106.48615234 17.53442383 105.80615234 17.53442383 C105.72107422 18.27305664 105.63599609 19.01168945 105.54833984 19.77270508 C104.65610046 23.09277478 103.40860178 24.37606053 100.93115234 26.72192383 C99.88314453 27.73319336 99.88314453 27.73319336 98.81396484 28.76489258 C95.54092558 31.64949722 93.5647747 32.8128991 89.24365234 32.78442383 C88.06609375 32.7921582 88.06609375 32.7921582 86.86474609 32.80004883 C84.80615234 32.53442383 84.80615234 32.53442383 82.80615234 30.53442383 C82.90654752 26.81980222 83.77393689 25.56986082 86.30615234 22.78442383 C87.54365234 21.67067383 87.54365234 21.67067383 88.80615234 20.53442383 C89.30115234 20.03942383 89.30115234 20.03942383 89.80615234 19.53442383 C91.80573598 19.493616 93.80660488 19.49188027 95.80615234 19.53442383 C95.45828526 17.55905638 95.45828526 17.55905638 94.80615234 15.53442383 C89.6454268 12.95406106 81.87761905 14.90693574 76.59521484 16.50708008 C66.36277943 20.5974238 56.94561032 26.6174656 49.74365234 35.03442383 C29.34129764 58.76961351 29.34129764 58.76961351 16.55615234 60.65942383 C11.99596658 60.79673529 8.75446787 59.93438033 4.80615234 57.53442383 C1.63162249 54.43410376 -1.07498166 51.41692955 -1.36181641 46.87426758 C-1.40591073 39.19303565 -0.90737318 31.82106954 0.18237305 24.22167969 C0.65826674 20.75211592 1.04090338 17.86738815 -0.19384766 14.53442383 C-1.00208984 14.58083008 -1.81033203 14.62723633 -2.64306641 14.67504883 C-11.48029706 14.97353189 -11.48029706 14.97353189 -15.44384766 12.53442383 C-16.02134766 11.87442383 -16.59884766 11.21442383 -17.19384766 10.53442383 C-15.63688359 6.71278476 -13.15976081 4.34823888 -10.19384766 1.53442383 C-7.87579078 -0.78363305 -3.12109907 0.05193238 0 0 Z " fill="#CCCCCC" transform="translate(347.19384765625,250.465576171875)"/>
<path d="M0 0 C4.57348832 2.25717419 7.8478692 5.71627704 10 10.33203125 C11.13350338 16.61782275 9.48798211 20.31239011 6.0546875 25.59375 C-4.33861763 39.44490379 -4.33861763 39.44490379 -10 41.33203125 C-11.5625 40.14453125 -11.5625 40.14453125 -13 38.33203125 C-12.65470114 34.14616347 -11.14201711 31.83335928 -8.5 28.64453125 C-4.54126759 23.81779809 -3.88217675 21.69448673 -4 15.33203125 C-8.73863027 12.54523954 -12.77316475 13.16878898 -18 14.33203125 C-24.29885779 16.7305287 -29.45311753 21.12515337 -34.70361328 25.24462891 C-61.93871394 46.54779753 -61.93871394 46.54779753 -79.5625 46.45703125 C-80.31724609 46.46089844 -81.07199219 46.46476562 -81.84960938 46.46875 C-85.40324793 46.46248808 -88.58246808 46.28998661 -92 45.33203125 C-92 44.67203125 -92 44.01203125 -92 43.33203125 C-92.53625 43.24953125 -93.0725 43.16703125 -93.625 43.08203125 C-99.71100829 41.1601339 -104.66365013 36.7006203 -108 31.33203125 C-109.1713538 27.72891957 -109.25575899 24.49715556 -108.4375 20.76953125 C-103.13252564 11.77413994 -94.19939691 4.11015269 -84 1.33203125 C-81 1.89453125 -81 1.89453125 -79 3.33203125 C-78.67 4.32203125 -78.34 5.31203125 -78 6.33203125 C-83.32269746 11.80680578 -87.92039586 15.5557159 -95 18.33203125 C-95 20.97203125 -95 23.61203125 -95 26.33203125 C-94.34 26.33203125 -93.68 26.33203125 -93 26.33203125 C-91.99307024 27.32505314 -90.99386144 28.32593014 -90 29.33203125 C-81.04779375 33.80813437 -71.75696948 33.364535 -62.25 30.70703125 C-56.42537001 28.70742741 -51.91094399 25.98085454 -47 22.33203125 C-45.41907579 21.25476431 -43.83799108 20.17772205 -42.25366211 19.10546875 C-37.64381607 15.97500596 -33.20654172 12.73409527 -28.9375 9.14453125 C-20.61624458 2.41469907 -10.92059369 -3.64730766 0 0 Z " fill="#CCCCCC" transform="translate(188,269.66796875)"/>
<path d="M0 0 C3.4375 0.875 3.4375 0.875 5.4375 3.875 C5.04347487 10.06870826 2.33821578 16.08091684 0.07421875 21.7890625 C-9.09374197 45.97809518 -12.0909078 65.13271687 -8.17724609 90.69042969 C-7.29134379 96.51863793 -6.83544309 102.3754485 -6.375 108.25 C-6.2925 109.12237305 -6.21 109.99474609 -6.125 110.89355469 C-5.62007559 116.24446969 -5.40874818 121.49898823 -5.5625 126.875 C-7.45378342 128.76628342 -10.13317726 128.1116852 -12.65234375 128.203125 C-13.59787109 128.04070312 -13.59787109 128.04070312 -14.5625 127.875 C-16.60401683 124.81272475 -16.85869233 123.84635189 -17.10913086 120.33789062 C-17.17937973 119.41842651 -17.2496286 118.4989624 -17.32200623 117.55163574 C-17.38976761 116.55490845 -17.45752899 115.55818115 -17.52734375 114.53125 C-17.60618301 113.49295044 -17.68502228 112.45465088 -17.76625061 111.3848877 C-18.01915105 108.04881658 -18.26081126 104.71208044 -18.5 101.375 C-19.6917575 72.52022248 -19.6917575 72.52022248 -28.625 45.5 C-29.6003411 43.56514484 -30.57559948 41.63024797 -31.55078125 39.6953125 C-32.55421789 37.75496541 -33.55812589 35.814862 -34.5625 33.875 C-36.50873299 30.05576238 -38.41790857 26.22005644 -40.3125 22.375 C-40.754729 21.52115723 -41.19695801 20.66731445 -41.65258789 19.78759766 C-44.20577811 14.61716794 -45.13136289 11.49922545 -43.5625 5.875 C-42.5625 4.875 -42.5625 4.875 -40.3125 4.3125 C-37.5625 4.875 -37.5625 4.875 -35.30859375 8.01953125 C-31.6693586 14.13488409 -28.81812633 20.65626224 -25.875 27.125 C-25.00298958 29.02783149 -24.12946497 30.92996178 -23.25566101 32.83197021 C-22.46918101 34.54603879 -21.68626788 36.26174268 -20.90356445 37.97753906 C-19.82847614 40.30034046 -18.71362248 42.58966443 -17.5625 44.875 C-17.24498779 43.61840576 -16.92747559 42.36181152 -16.6003418 41.06713867 C-15.41994772 36.40718915 -14.22585665 31.75084123 -13.02758789 27.09545898 C-12.51081845 25.07981478 -11.99777222 23.0632122 -11.48852539 21.0456543 C-10.75602573 18.14632508 -10.01021931 15.25070254 -9.26171875 12.35546875 C-9.03659103 11.45225388 -8.81146332 10.549039 -8.57951355 9.61845398 C-8.35951187 8.77780899 -8.13951019 7.937164 -7.9128418 7.07104492 C-7.72408981 6.33158127 -7.53533783 5.59211761 -7.34086609 4.83024597 C-5.72047149 0.7598348 -4.40127946 -0.15443086 0 0 Z " fill="#FEFEFE" transform="translate(358.5625,92.125)"/>
<path d="M0 0 C5.40540541 1.40540541 5.40540541 1.40540541 7 3 C7.24553668 4.84268694 7.42379208 6.69431872 7.578125 8.546875 C7.68471436 9.81418457 7.79130371 11.08149414 7.90112305 12.38720703 C8.01779363 13.84144106 8.13406999 15.29570675 8.25 16.75 C8.31047516 17.49199646 8.37095032 18.23399292 8.43325806 18.99847412 C9.89289431 36.91662264 11.19997351 54.84737857 12.51487732 72.77662659 C12.68705992 75.11901306 12.86042213 77.46130968 13.03405762 79.80358887 C13.31203038 83.55756993 13.5860319 87.31182215 13.85716438 91.06630325 C13.95866893 92.46454333 14.06136743 93.86269735 14.16537285 95.26075363 C14.72910326 102.85390746 15.15872448 110.38443159 15 118 C11.535 118.99 11.535 118.99 8 120 C4.23165279 116.83945073 3.5866105 114.80855113 3 110 C2.81994548 107.76021142 2.67273586 105.51764124 2.55102539 103.27392578 C2.51507767 102.62885071 2.47912994 101.98377563 2.4420929 101.31915283 C2.36480232 99.92467277 2.28902616 98.53010811 2.21461678 97.13547134 C2.09533718 94.90188639 1.97182071 92.66856936 1.84727478 90.43527222 C1.53793379 84.87295509 1.23561554 79.3102606 0.93328857 73.74755859 C0.6376471 68.3132663 0.33880739 62.87916339 0.03515625 57.4453125 C-0.00702719 56.68866177 -0.04921062 55.93201103 -0.09267235 55.15243149 C-0.68755046 44.56317326 -1.40895237 33.99427442 -2.36631775 23.43045044 C-3.81511377 7.41656247 -3.81511377 7.41656247 -3 2 C-2.01 1.34 -1.02 0.68 0 0 Z " fill="#FEFEFE" transform="translate(174,91)"/>
<path d="M0 0 C3.2034872 2.42041255 4.83083917 3.8126211 5.40625 7.8515625 C4.88510276 11.89045364 3.48627115 13.33963511 0.6875 16.25 C-0.11300781 17.10078125 -0.91351563 17.9515625 -1.73828125 18.828125 C-4 21 -4 21 -7 23 C-9.89137509 22.81928906 -10.79409549 22.2279657 -12.75 20.0625 C-14 18 -14 18 -14 16 C-14.66 16 -15.32 16 -16 16 C-16.38056892 12.2432411 -16.41563846 10.55161894 -14.1015625 7.48046875 C-13.28429687 6.72378906 -12.46703125 5.96710938 -11.625 5.1875 C-10.81289062 4.41792969 -10.00078125 3.64835938 -9.1640625 2.85546875 C-6.02550994 0.16447152 -4.12644804 -0.57578345 0 0 Z " fill="#CACACA" transform="translate(148,241)"/>
</svg>
